# Blender 4.4.3
# www.blender.org
mtllib dart.mtl
o DartMonkeyDart
g dart
v 0.011299 -0.018293 -0.188072
v -0.000011 0.000364 -0.368902
v -0.011321 -0.018293 -0.188072
v -0.000011 0.000364 -0.368902
v -0.022632 0.001296 -0.188173
v -0.066901 0.001642 -0.121269
v -0.033456 -0.056286 -0.120970
v -0.072301 0.002445 0.034474
v -0.036157 -0.060157 0.034797
v -0.012444 0.003845 0.305625
v -0.006229 -0.006920 0.305681
v -0.000013 0.003845 0.305625
v 0.006202 -0.006920 0.305681
v 0.012417 0.003845 0.305625
v 0.006202 0.014610 0.305570
v -0.006229 0.014610 0.305570
v -0.036157 0.065048 0.034151
v 0.036130 0.065048 0.034151
v -0.033456 0.059570 -0.121568
v 0.033434 0.059570 -0.121568
v -0.011322 0.020886 -0.188275
v -0.000011 0.000364 -0.368902
v 0.011299 0.020886 -0.188274
v -0.000011 0.000364 -0.368902
v -0.000011 0.000364 -0.368902
v 0.022609 0.001297 -0.188173
v 0.022609 0.001297 -0.188173
v -0.000011 0.000364 -0.368902
v 0.011299 -0.018293 -0.188072
v 0.093790 0.003609 0.259909
v 0.000298 0.010404 0.180317
v 0.000298 -0.004007 0.180391
v 0.000298 -0.004007 0.180391
v 0.000298 0.010404 0.180317
v -0.088468 0.003609 0.259909
v 0.006202 0.014610 0.305570
v 0.036130 0.065048 0.034151
v 0.012417 0.003845 0.305625
v 0.072274 0.002446 0.034474
v 0.033434 0.059570 -0.121568
v 0.006202 -0.006920 0.305681
v 0.066879 0.001642 -0.121269
v 0.011299 0.020886 -0.188274
v 0.022609 0.001297 -0.188173
v 0.036130 -0.060157 0.034797
v -0.006229 -0.006920 0.305681
v -0.036157 -0.060157 0.034797
v 0.033434 -0.056286 -0.120970
v 0.011299 -0.018293 -0.188072
v -0.033456 -0.056286 -0.120970
v -0.011321 -0.018293 -0.188072
v 0.000298 0.010404 0.180317
v 0.093790 0.003609 0.259909
v 0.000298 0.011050 0.305577
v 0.030658 0.011217 0.337848
v 0.093790 0.004011 0.337816
v 0.000298 0.010404 0.180317
v 0.000298 0.011050 0.305577
v -0.088468 0.003609 0.259909
v -0.027885 0.011217 0.337972
v -0.088468 0.004012 0.338075
v 0.000298 -0.003361 0.305651
v -0.027885 -0.003194 0.338046
v 0.000298 0.011050 0.305577
v -0.027885 0.011217 0.337972
v -0.088468 0.004012 0.338075
v -0.088468 0.003609 0.259909
v 0.000298 -0.003361 0.305651
v 0.000298 -0.004007 0.180391
v 0.000298 -0.004007 0.180391
v 0.000298 -0.003361 0.305651
v 0.093790 0.003609 0.259909
v 0.030658 -0.003194 0.337922
v 0.093790 0.004011 0.337816
v 0.030658 0.011217 0.337848
v 0.000298 -0.003361 0.305651
v 0.000298 0.011050 0.305577
vn -0.6321 -0.7190 -0.2890
vn -0.0000 -0.9947 -0.1026
vn -0.9277 -0.0019 -0.3734
vn -0.8610 -0.4976 -0.1052
vn -0.6322 -0.7190 -0.2889
vn -0.9594 -0.0015 -0.2821
vn -0.8392 -0.4858 -0.2443
vn -0.9961 0.0005 0.0877
vn -0.8635 -0.4982 0.0786
vn -0.7235 0.0036 0.6903
vn -0.4891 -0.2781 0.8267
vn -0.0000 0.0052 1.0000
vn -0.0000 0.5690 0.8223
vn -0.3618 0.6301 0.6871
vn -0.4981 0.8631 0.0833
vn -0.0000 0.9975 0.0709
vn -0.4797 0.8294 -0.2864
vn -0.0000 0.9678 -0.2518
vn -0.4638 0.8014 -0.3776
vn -0.8610 0.4965 -0.1103
vn 0.3053 0.9047 -0.2973
vn -0.0000 0.9936 -0.1129
vn 0.8610 0.4965 -0.1103
vn 0.8610 -0.4976 -0.1052
vn 0.6481 -0.0039 -0.7616
vn -0.6674 -0.0038 -0.7447
vn 0.9765 0.0011 0.2156
vn 0.8635 0.4989 0.0735
vn 0.8506 0.4921 0.1852
vn 0.9961 0.0004 0.0878
vn 0.8392 0.4832 -0.2493
vn 0.4883 -0.8445 0.2199
vn 0.9594 -0.0015 -0.2821
vn 0.7514 0.4312 -0.4994
vn 0.8340 -0.0028 -0.5518
vn 0.4981 -0.8622 0.0922
vn -0.0000 -0.9812 0.1928
vn -0.0000 -0.9967 0.0812
vn 0.4797 -0.8323 -0.2778
vn 0.4170 -0.7251 -0.5481
vn -0.0000 -0.9703 -0.2418
vn -0.0000 -0.8702 -0.4927
vn 0.0640 0.9975 -0.0315
vn 0.0832 0.9964 -0.0146
vn 0.0768 0.9970 -0.0051
vn 0.0759 0.9965 -0.0358
vn 0.1134 0.9935 -0.0051
vn -0.0870 0.9961 -0.0143
vn -0.0672 0.9972 -0.0318
vn -0.0809 0.9967 -0.0051
vn -0.0807 0.9961 -0.0345
vn -0.1181 0.9930 -0.0051
vn 0.7545 0.0034 0.6563
vn 0.2891 -0.6526 0.7004
vn 0.4311 0.0047 0.9023
vn -0.1166 -0.9811 0.1542
vn -0.0869 -0.9962 -0.0040
vn -0.0672 -0.9975 -0.0215
vn -0.0809 -0.9967 0.0051
vn 0.0832 -0.9965 -0.0043
vn 0.0640 -0.9977 -0.0212
vn 0.0768 -0.9970 0.0051
vn -0.2751 -0.6545 0.7042
vn 0.1124 -0.9826 0.1482
vn -0.4111 0.0047 0.9116
vn -0.7283 0.0035 0.6852
vt 0.095826 0.910999
vt 0.113576 0.888366
vt 0.092867 0.910999
vt 0.113576 0.910999
vt 0.113576 0.921678
vt 0.095826 0.921678
vt 0.113576 0.942633
vt 0.095826 0.942633
vt 0.113576 0.997590
vt 0.095826 0.997590
vt 0.092864 0.997590
vt 0.148332 0.997590
vt 0.155139 0.997590
vt 0.134053 0.997590
vt 0.134053 0.942633
vt 0.155139 0.942633
vt 0.134053 0.921678
vt 0.155139 0.921678
vt 0.134053 0.910999
vt 0.155139 0.910999
vt 0.167714 0.910999
vt 0.162845 0.910999
vt 0.091103 0.712852
vt 0.091103 0.710904
vt 0.078878 0.711878
vt 0.145173 0.997590
vt 0.166941 0.942633
vt 0.166941 0.997590
vt 0.145173 0.942633
vt 0.166941 0.921678
vt 0.119913 0.997590
vt 0.145173 0.921678
vt 0.166941 0.910999
vt 0.145173 0.910999
vt 0.119913 0.942633
vt 0.099592 0.997590
vt 0.099592 0.942633
vt 0.119913 0.921678
vt 0.119913 0.910999
vt 0.099592 0.921678
vt 0.099592 0.910999
vt 0.078878 0.715663
vt 0.091103 0.724694
vt 0.078878 0.734970
vt 0.084195 0.712852
vt 0.091206 0.724625
vt 0.078878 0.715594
vt 0.078878 0.734901
vt 0.084195 0.712783
vt 0.091206 0.712783
vt 0.078878 0.710835
vt 0.078878 0.712783
vt 0.084195 0.710835
vt 0.091206 0.711809
vt 0.091206 0.724571
vt 0.078878 0.715525
vt 0.078878 0.734832
vt 0.091103 0.724608
vt 0.091103 0.711878
vt 0.084195 0.710904
vt 0.078878 0.712852
vt 0.078878 0.710904
s 1
usemtl DartMonkeyDart.001
f 3/1/1 2/2/2 1/3/2
f 5/4/3 4/2/4 3/1/5
f 6/5/6 5/4/3 3/1/5
f 6/5/6 3/1/5 7/6/7
f 8/7/8 6/5/6 7/6/7
f 8/7/8 7/6/7 9/8/9
f 10/9/10 8/7/8 9/8/9
f 10/9/10 9/8/9 11/10/11
f 11/10/11 12/9/12 10/9/10
f 13/11/12 12/9/12 11/10/11
f 14/12/12 12/9/12 13/11/12
f 15/13/13 12/9/12 14/12/12
f 10/9/10 12/9/12 16/14/14
f 16/14/14 8/7/8 10/9/10
f 16/14/14 12/9/12 15/13/13
f 16/14/14 17/15/15 8/7/8
f 15/13/13 17/15/15 16/14/14
f 17/15/15 6/5/6 8/7/8
f 15/13/13 18/16/16 17/15/15
f 17/15/15 19/17/17 6/5/6
f 18/16/16 19/17/17 17/15/15
f 19/17/17 5/4/3 6/5/6
f 18/16/16 20/18/18 19/17/17
f 19/17/17 21/19/19 5/4/3
f 20/18/18 21/19/19 19/17/17
f 21/19/19 22/2/20 5/4/3
f 20/18/18 23/20/21 21/19/19
f 23/20/21 24/2/22 21/19/19
f 26/21/23 25/2/23 23/20/21
f 29/22/24 28/2/24 27/21/24
f 32/23/25 31/24/25 30/25/25
f 35/25/26 34/23/26 33/24/26
f 38/26/27 37/27/28 36/28/29
f 38/26/27 39/29/30 37/27/28
f 39/29/30 40/30/31 37/27/28
f 41/31/32 39/29/30 38/26/27
f 39/29/30 42/32/33 40/30/31
f 42/32/33 43/33/34 40/30/31
f 42/32/33 44/34/35 43/33/34
f 41/31/32 45/35/36 39/29/30
f 45/35/36 42/32/33 39/29/30
f 46/36/37 45/35/36 41/31/32
f 46/36/37 47/37/38 45/35/36
f 48/38/39 44/34/35 42/32/33
f 45/35/36 48/38/39 42/32/33
f 47/37/38 48/38/39 45/35/36
f 48/38/39 49/39/40 44/34/35
f 47/37/38 50/40/41 48/38/39
f 50/40/41 49/39/40 48/38/39
f 50/40/41 51/41/42 49/39/40
f 54/42/43 53/43/44 52/44/45
f 55/45/46 53/43/44 54/42/43
f 55/45/46 56/23/47 53/43/44
f 59/46/48 58/47/49 57/48/50
f 59/46/48 60/49/51 58/47/49
f 61/50/52 60/49/51 59/46/48
f 64/51/53 63/49/54 62/52/53
f 64/51/53 65/53/55 63/49/54
f 66/54/56 63/49/54 65/53/55
f 66/54/56 67/55/57 63/49/54
f 63/49/54 67/55/57 68/56/58
f 68/56/58 67/55/57 69/57/59
f 72/58/60 71/47/61 70/48/62
f 72/58/60 73/45/63 71/47/61
f 73/45/63 72/58/60 74/59/64
f 75/60/65 73/45/63 74/59/64
f 75/60/65 76/61/66 73/45/63
f 75/60/65 77/62/66 76/61/66
